<svg width="232" height="85" viewBox="0 0 232 85" fill="none" xmlns="http://www.w3.org/2000/svg">
<path d="M0.949219 12.8257C0.949219 5.82318 6.63053 0.146484 13.6388 0.146484H219.26C226.268 0.146484 231.949 5.82318 231.949 12.8257V71.4672C231.949 78.4698 226.268 84.1465 219.26 84.1465H13.6388C6.63052 84.1465 0.949219 78.4698 0.949219 71.4672V12.8257Z" fill="white"/>
<path d="M53.8979 43.4199C53.9435 39.871 55.8436 36.5128 58.8579 34.654C56.9563 31.9298 53.7712 30.2026 50.4575 30.0986C46.9232 29.7265 43.4968 32.22 41.6957 32.22C39.8598 32.22 37.0868 30.1356 34.1008 30.1972C30.2086 30.3233 26.5801 32.543 24.6865 35.9564C20.6159 43.0257 23.6522 53.4151 27.5514 59.1294C29.5023 61.9275 31.7823 65.0531 34.7657 64.9423C37.6851 64.8208 38.7754 63.0749 42.2994 63.0749C45.7906 63.0749 46.8136 64.9423 49.8575 64.8718C52.9901 64.8208 54.9639 62.0613 56.8463 59.2366C58.248 57.2429 59.3266 55.0393 60.0421 52.7076C56.3607 51.1458 53.9022 47.4295 53.8979 43.4199Z" fill="#090909"/>
<path d="M48.1485 26.3406C49.8565 24.2838 50.698 21.6402 50.4943 18.9711C47.8847 19.246 45.4743 20.4971 43.7432 22.4749C42.0504 24.4074 41.1694 27.0045 41.336 29.5716C43.9464 29.5986 46.5127 28.3815 48.1485 26.3406Z" fill="#090909"/>
<path d="M158.024 39.7544V44.055H155.337V46.8753H158.024V56.4582C158.024 59.7304 159.5 61.0392 163.213 61.0392C163.865 61.0392 164.487 60.9613 165.03 60.8678V58.0787C164.564 58.1254 164.269 58.1566 163.757 58.1566C162.094 58.1566 161.364 57.3775 161.364 55.6012V46.8753H165.03V44.055H161.364V39.7544H158.024Z" fill="#090909"/>
<path d="M174.488 61.273C179.428 61.273 182.457 57.954 182.457 52.4536C182.457 46.9844 179.412 43.6499 174.488 43.6499C169.548 43.6499 166.504 46.9844 166.504 52.4536C166.504 57.954 169.533 61.273 174.488 61.273ZM174.488 58.2968C171.583 58.2968 169.952 56.1621 169.952 52.4536C169.952 48.7763 171.583 46.626 174.488 46.626C177.377 46.626 179.024 48.7763 179.024 52.4536C179.024 56.1465 177.377 58.2968 174.488 58.2968Z" fill="#090909"/>
<path d="M185.048 60.9457H188.388V50.9266C188.388 48.5426 190.175 46.9377 192.707 46.9377C193.297 46.9377 194.291 47.0467 194.571 47.1402V43.8369C194.213 43.7434 193.577 43.6966 193.079 43.6966C190.874 43.6966 188.994 44.912 188.513 46.5793H188.264V43.9771H185.048V60.9457Z" fill="#090909"/>
<path d="M202.863 46.5014C205.333 46.5014 206.949 48.231 207.026 50.8955H198.483C198.669 48.2465 200.393 46.5014 202.863 46.5014ZM207.011 56.3647C206.39 57.6891 205.007 58.4215 202.988 58.4215C200.316 58.4215 198.592 56.5361 198.483 53.5599V53.373H210.428V52.2043C210.428 46.8753 207.586 43.6499 202.879 43.6499C198.11 43.6499 195.081 47.0935 195.081 52.516C195.081 57.9384 198.048 61.273 202.894 61.273C206.762 61.273 209.465 59.4031 210.226 56.3647H207.011Z" fill="#090909"/>
<path d="M136.123 54.6795C136.38 58.8462 139.842 61.511 144.994 61.511C150.5 61.511 153.946 58.717 153.946 54.2596C153.946 50.755 151.982 48.817 147.216 47.7026L144.656 47.0728C141.629 46.3622 140.405 45.4093 140.405 43.7459C140.405 41.6464 142.305 40.2736 145.155 40.2736C147.86 40.2736 149.728 41.6141 150.066 43.762H153.576C153.366 39.8375 149.921 37.0759 145.203 37.0759C140.132 37.0759 136.751 39.8375 136.751 43.9881C136.751 47.4119 138.667 49.4469 142.869 50.432L145.863 51.1588C148.939 51.8855 150.291 52.9514 150.291 54.7279C150.291 56.7952 148.166 58.2971 145.268 58.2971C142.16 58.2971 140.003 56.8921 139.697 54.6795H136.123Z" fill="#090909"/>
<path d="M101.526 43.6966C99.227 43.6966 97.2386 44.8497 96.2134 46.7818H95.9648V43.9771H92.7493V66.5864H96.0891V58.3747H96.3532C97.2386 60.1666 99.1493 61.2262 101.557 61.2262C105.829 61.2262 108.547 57.845 108.547 52.4536C108.547 47.0623 105.829 43.6966 101.526 43.6966ZM100.578 58.2189C97.7823 58.2189 96.027 56.0063 96.027 52.4692C96.027 48.9166 97.7823 46.7039 100.594 46.7039C103.421 46.7039 105.114 48.8698 105.114 52.4536C105.114 56.053 103.421 58.2189 100.578 58.2189Z" fill="#090909"/>
<path d="M120.234 43.6966C117.935 43.6966 115.946 44.8497 114.921 46.7818H114.673V43.9771H111.457V66.5864H114.797V58.3747H115.061C115.946 60.1666 117.857 61.2262 120.265 61.2262C124.537 61.2262 127.255 57.845 127.255 52.4536C127.255 47.0623 124.537 43.6966 120.234 43.6966ZM119.286 58.2189C116.49 58.2189 114.735 56.0063 114.735 52.4692C114.735 48.9166 116.49 46.7039 119.302 46.7039C122.129 46.7039 123.822 48.8698 123.822 52.4536C123.822 56.053 122.129 58.2189 119.286 58.2189Z" fill="#090909"/>
<path d="M86.7572 60.9457H90.5891L82.2008 37.6411H78.3206L69.9323 60.9457H73.6353L75.7767 54.7602H84.6319L86.7572 60.9457ZM80.0755 41.8725H80.3492L83.7142 51.724H76.6944L80.0755 41.8725Z" fill="#090909"/>
<path d="M70.5451 30.5767V22.817H72.9019C72.9845 22.817 73.1248 22.8188 73.3225 22.8224C73.5238 22.826 73.7162 22.8403 73.8996 22.8655C74.4892 22.9481 74.9818 23.1672 75.3773 23.5229C75.7728 23.8785 76.0694 24.3312 76.2671 24.8808C76.4649 25.4305 76.5637 26.0358 76.5637 26.6968C76.5637 27.3578 76.4649 27.9632 76.2671 28.5128C76.0694 29.0625 75.7728 29.5151 75.3773 29.8708C74.9818 30.2264 74.4892 30.4455 73.8996 30.5282C73.7198 30.5497 73.5274 30.5641 73.3225 30.5713C73.1176 30.5749 72.9774 30.5767 72.9019 30.5767H70.5451ZM71.3648 29.8169H72.9019C73.0493 29.8169 73.2075 29.8133 73.3764 29.8061C73.549 29.7953 73.6964 29.7774 73.8187 29.7522C74.2717 29.6732 74.6366 29.49 74.9135 29.2026C75.1939 28.9152 75.3988 28.5559 75.5283 28.1248C75.6577 27.6901 75.7224 27.2141 75.7224 26.6968C75.7224 26.1759 75.6577 25.6981 75.5283 25.2634C75.3988 24.8287 75.1939 24.4695 74.9135 24.1857C74.633 23.9019 74.2681 23.7205 73.8187 23.6414C73.6964 23.6163 73.5472 23.6001 73.371 23.5929C73.1985 23.5822 73.0421 23.5768 72.9019 23.5768H71.3648V29.8169Z" fill="black"/>
<path d="M77.8999 23.6522V22.7631H78.6926V23.6522H77.8999ZM77.8999 30.5767V24.7569H78.6926V30.5767H77.8999Z" fill="black"/>
<path d="M82.4829 30.7329C81.7998 30.7329 81.2371 30.5857 80.7948 30.2911C80.3562 29.9965 80.0866 29.587 79.9859 29.0625L80.7948 28.9277C80.8811 29.2582 81.0771 29.5223 81.3827 29.7199C81.6919 29.9139 82.073 30.0109 82.526 30.0109C82.9683 30.0109 83.317 29.9193 83.5723 29.736C83.8275 29.5492 83.9552 29.296 83.9552 28.9762C83.9552 28.7966 83.9138 28.6511 83.8311 28.5398C83.752 28.4248 83.5885 28.3188 83.3404 28.2218C83.0923 28.1248 82.722 28.0099 82.2294 27.8769C81.7009 27.7332 81.2874 27.5895 80.989 27.4459C80.6906 27.3022 80.4785 27.1369 80.3526 26.9501C80.2268 26.7597 80.1639 26.528 80.1639 26.255C80.1639 25.9244 80.2573 25.6353 80.4443 25.3874C80.6313 25.1359 80.8901 24.9419 81.2209 24.8054C81.5517 24.6653 81.9364 24.5952 82.375 24.5952C82.8136 24.5952 83.2056 24.6671 83.5507 24.8108C83.8995 24.9509 84.1799 25.1485 84.392 25.4035C84.6041 25.6586 84.73 25.955 84.7695 26.2927L83.9606 26.4382C83.9067 26.0969 83.7359 25.8275 83.4482 25.6299C83.1642 25.4287 82.8029 25.3245 82.3642 25.3173C81.9508 25.3065 81.6146 25.3856 81.3557 25.5544C81.0969 25.7197 80.9674 25.9406 80.9674 26.2172C80.9674 26.3717 81.0142 26.5046 81.1076 26.616C81.2011 26.7238 81.3701 26.8262 81.6146 26.9231C81.8627 27.0201 82.215 27.1261 82.6716 27.2411C83.2073 27.3776 83.628 27.5213 83.9336 27.6722C84.2392 27.8231 84.4567 28.0009 84.5862 28.2057C84.7156 28.4104 84.7803 28.6637 84.7803 28.9655C84.7803 29.5151 84.5754 29.948 84.1655 30.2641C83.7592 30.5767 83.1984 30.7329 82.4829 30.7329Z" fill="black"/>
<path d="M88.592 30.7383C88.0563 30.7383 87.6033 30.6036 87.233 30.3342C86.8627 30.0612 86.5822 29.6929 86.3917 29.2295C86.2011 28.7625 86.1058 28.2398 86.1058 27.6614C86.1058 27.0722 86.2011 26.5477 86.3917 26.0879C86.5858 25.6245 86.8699 25.2598 87.2438 24.994C87.6177 24.7282 88.0779 24.5952 88.6244 24.5952C89.1565 24.5952 89.6131 24.73 89.9942 24.9994C90.3753 25.2688 90.6666 25.6353 90.8679 26.0987C91.0728 26.5621 91.1753 27.083 91.1753 27.6614C91.1753 28.2434 91.0728 28.7661 90.8679 29.2295C90.663 29.6929 90.3681 30.0612 89.9834 30.3342C89.5987 30.6036 89.1349 30.7383 88.592 30.7383ZM85.971 33.1632V24.7569H86.6829V29.1379H86.7692V33.1632H85.971ZM88.5111 30.0001C88.9174 30.0001 89.2554 29.8977 89.525 29.6929C89.7947 29.4882 89.996 29.2097 90.1291 28.8577C90.2657 28.502 90.334 28.1033 90.334 27.6614C90.334 27.2231 90.2675 26.8279 90.1344 26.4759C90.0014 26.1238 89.7983 25.8454 89.525 25.6406C89.2554 25.4359 88.912 25.3335 88.495 25.3335C88.0887 25.3335 87.7507 25.4323 87.4811 25.6299C87.215 25.8275 87.0155 26.1023 86.8824 26.4543C86.7494 26.8028 86.6829 27.2052 86.6829 27.6614C86.6829 28.1105 86.7494 28.5128 86.8824 28.8685C87.0155 29.2205 87.2168 29.4971 87.4865 29.6983C87.7561 29.8995 88.0977 30.0001 88.5111 30.0001Z" fill="black"/>
<path d="M94.7919 30.7383C94.213 30.7383 93.7187 30.6072 93.3088 30.345C92.8989 30.0827 92.5843 29.7199 92.365 29.2564C92.1457 28.793 92.036 28.2613 92.036 27.6614C92.036 27.0507 92.1475 26.5154 92.3704 26.0556C92.5933 25.5957 92.9097 25.2383 93.3196 24.9832C93.733 24.7246 94.2238 24.5952 94.7919 24.5952C95.3743 24.5952 95.8705 24.7264 96.2804 24.9886C96.6938 25.2473 97.0084 25.6083 97.2241 26.0717C97.4434 26.5316 97.5531 27.0615 97.5531 27.6614C97.5531 28.2721 97.4434 28.8092 97.2241 29.2726C97.0048 29.7324 96.6884 30.0917 96.275 30.3503C95.8615 30.609 95.3671 30.7383 94.7919 30.7383ZM94.7919 29.9785C95.439 29.9785 95.9208 29.7648 96.2372 29.3373C96.5536 28.9062 96.7118 28.3476 96.7118 27.6614C96.7118 26.9573 96.5518 26.3969 96.2318 25.9801C95.9154 25.5634 95.4354 25.355 94.7919 25.355C94.3568 25.355 93.9973 25.4538 93.7133 25.6514C93.4328 25.8454 93.2225 26.1166 93.0823 26.4651C92.9456 26.81 92.8773 27.2087 92.8773 27.6614C92.8773 28.3619 93.0391 28.9241 93.3627 29.3481C93.6863 29.7684 94.1627 29.9785 94.7919 29.9785Z" fill="black"/>
<path d="M102.949 30.5767V27.6075C102.949 27.2842 102.919 26.9878 102.858 26.7184C102.797 26.4454 102.698 26.2082 102.561 26.0071C102.428 25.8023 102.254 25.6442 102.038 25.5329C101.826 25.4215 101.567 25.3658 101.261 25.3658C100.981 25.3658 100.733 25.4143 100.517 25.5113C100.305 25.6083 100.125 25.7484 99.9778 25.9316C99.834 26.1113 99.7243 26.3304 99.6488 26.5891C99.5733 26.8477 99.5356 27.1423 99.5356 27.4728L98.9747 27.3489C98.9747 26.7525 99.079 26.2514 99.2875 25.8454C99.496 25.4395 99.7836 25.1323 100.15 24.9239C100.517 24.7156 100.938 24.6114 101.412 24.6114C101.761 24.6114 102.065 24.6653 102.324 24.7731C102.586 24.8808 102.807 25.0263 102.987 25.2095C103.17 25.3928 103.318 25.6029 103.429 25.84C103.541 26.0735 103.622 26.3232 103.672 26.5891C103.722 26.8513 103.748 27.1135 103.748 27.3758V30.5767H102.949ZM98.7374 30.5767V24.7569H99.4547V26.1903H99.5356V30.5767H98.7374Z" fill="black"/>
<path d="M106.005 23.8408H105.325L105.967 22.1703H106.646L106.005 23.8408ZM105.255 30.5767V24.7569H106.048V30.5767H105.255Z" fill="black"/>
<path d="M109.239 30.5767L107.125 24.7569H107.929L109.649 29.542L111.359 24.7569H112.173L110.059 30.5767H109.239Z" fill="black"/>
<path d="M115.396 30.7383C114.828 30.7383 114.335 30.6126 113.918 30.3611C113.505 30.1097 113.183 29.7558 112.953 29.2996C112.723 28.8433 112.608 28.308 112.608 27.6937C112.608 27.0579 112.721 26.5082 112.947 26.0448C113.174 25.5814 113.492 25.2239 113.902 24.9724C114.315 24.721 114.803 24.5952 115.363 24.5952C115.939 24.5952 116.429 24.7282 116.836 24.994C117.242 25.2563 117.549 25.6335 117.758 26.1256C117.966 26.6178 118.062 27.2052 118.044 27.8877H117.235V27.6075C117.22 26.8531 117.057 26.2837 116.744 25.8993C116.435 25.5149 115.982 25.3227 115.385 25.3227C114.759 25.3227 114.279 25.5257 113.945 25.9316C113.614 26.3376 113.449 26.916 113.449 27.6668C113.449 28.3996 113.614 28.9691 113.945 29.375C114.279 29.7774 114.752 29.9785 115.363 29.9785C115.781 29.9785 116.144 29.8833 116.453 29.6929C116.766 29.4989 117.012 29.2205 117.192 28.8577L117.931 29.1433C117.7 29.6498 117.361 30.0432 116.911 30.3234C116.465 30.6 115.96 30.7383 115.396 30.7383ZM113.168 27.8877V27.2249H117.618V27.8877H113.168Z" fill="black"/>
<path d="M119.348 30.5767V22.6553H120.141V30.5767H119.348Z" fill="black"/>
<path d="M128.124 30.5767V27.6075C128.124 27.2842 128.093 26.9878 128.032 26.7184C127.971 26.4454 127.872 26.2082 127.736 26.0071C127.603 25.8023 127.428 25.6442 127.213 25.5329C127 25.4215 126.742 25.3658 126.436 25.3658C126.156 25.3658 125.907 25.4143 125.692 25.5113C125.48 25.6083 125.3 25.7484 125.152 25.9316C125.009 26.1113 124.899 26.3304 124.823 26.5891C124.748 26.8477 124.71 27.1423 124.71 27.4728L124.149 27.3489C124.149 26.7525 124.254 26.2514 124.462 25.8454C124.671 25.4395 124.958 25.1323 125.325 24.9239C125.692 24.7156 126.112 24.6114 126.587 24.6114C126.936 24.6114 127.24 24.6653 127.498 24.7731C127.761 24.8808 127.982 25.0263 128.162 25.2095C128.345 25.3928 128.493 25.6029 128.604 25.84C128.715 26.0735 128.796 26.3232 128.847 26.5891C128.897 26.8513 128.922 27.1135 128.922 27.3758V30.5767H128.124ZM123.912 30.5767V24.7569H124.629V26.1903H124.71V30.5767H123.912Z" fill="black"/>
<path d="M131.988 30.7383C131.55 30.7383 131.181 30.6593 130.883 30.5012C130.588 30.3432 130.367 30.133 130.219 29.8708C130.072 29.6085 129.998 29.3229 129.998 29.014C129.998 28.6978 130.061 28.4284 130.187 28.2057C130.316 27.9793 130.491 27.7943 130.71 27.6506C130.933 27.5069 131.19 27.3974 131.481 27.3219C131.776 27.2501 132.101 27.1872 132.457 27.1333C132.817 27.0758 133.167 27.0273 133.509 26.9878C133.854 26.9447 134.156 26.9034 134.415 26.8639L134.135 27.0363C134.145 26.4615 134.034 26.0358 133.8 25.7592C133.567 25.4826 133.16 25.3443 132.581 25.3443C132.182 25.3443 131.844 25.4341 131.567 25.6137C131.294 25.7933 131.102 26.0771 130.99 26.4651L130.219 26.2388C130.352 25.7179 130.62 25.3137 131.023 25.0263C131.425 24.7389 131.949 24.5952 132.592 24.5952C133.124 24.5952 133.575 24.6958 133.946 24.897C134.32 25.0946 134.584 25.382 134.739 25.7592C134.811 25.928 134.857 26.1166 134.879 26.325C134.9 26.5334 134.911 26.7453 134.911 26.9609V30.5767H134.205V29.1163L134.41 29.2026C134.212 29.7019 133.904 30.0827 133.487 30.345C133.07 30.6072 132.571 30.7383 131.988 30.7383ZM132.08 30.054C132.45 30.054 132.774 29.9875 133.051 29.8546C133.327 29.7217 133.55 29.5403 133.719 29.3103C133.888 29.0768 133.998 28.8146 134.048 28.5236C134.091 28.3368 134.115 28.132 134.118 27.9093C134.122 27.683 134.124 27.5141 134.124 27.4027L134.426 27.559C134.156 27.5949 133.863 27.6309 133.547 27.6668C133.234 27.7027 132.925 27.744 132.619 27.7907C132.317 27.8374 132.044 27.8931 131.799 27.9578C131.634 28.0045 131.474 28.0709 131.319 28.1572C131.165 28.2398 131.037 28.3511 130.937 28.4913C130.839 28.6314 130.791 28.8056 130.791 29.014C130.791 29.1828 130.832 29.3463 130.915 29.5043C131.001 29.6624 131.138 29.7935 131.325 29.8977C131.515 30.0019 131.767 30.054 132.08 30.054Z" fill="black"/>
</svg>
