<svg width="227" height="85" viewBox="0 0 227 85" fill="none" xmlns="http://www.w3.org/2000/svg">
<path d="M0.949219 12.8257C0.949219 5.82318 6.64169 0.146484 13.6637 0.146484H214.235C221.257 0.146484 226.949 5.82318 226.949 12.8257V71.4672C226.949 78.4698 221.257 84.1465 214.235 84.1465H13.6637C6.64169 84.1465 0.949219 78.4698 0.949219 71.4672V12.8257Z" fill="white"/>
<path d="M23.5056 21.4174C23.0173 21.9348 22.7287 22.7379 22.7287 23.7778V60.9327C22.7287 61.9743 23.0173 62.7756 23.5056 63.2931L23.6298 63.414L44.42 42.6005V42.11L23.6298 21.2948L23.5056 21.4174Z" fill="url(#paint0_linear_2_2961)"/>
<path d="M51.3486 49.5402L44.4196 42.6002V42.1096L51.3503 35.1712L51.5064 35.2602L59.7174 39.9306C62.0617 41.2646 62.0617 43.4469 59.7174 44.7825L51.5064 49.4529L51.3486 49.5402Z" fill="url(#paint1_linear_2_2961)"/>
<path d="M51.5067 49.4511L44.4184 42.3548L23.5056 63.2927C24.2776 64.1125 25.5546 64.2133 26.9928 63.3968L51.5067 49.4511Z" fill="url(#paint2_linear_2_2961)"/>
<path d="M51.5067 35.2589L26.9928 21.3149C25.5546 20.4967 24.2776 20.5992 23.5056 21.419L44.42 42.3569L51.5067 35.2589Z" fill="url(#paint3_linear_2_2961)"/>
<path d="M114.206 44.3879C110.478 44.3879 107.439 47.2141 107.439 51.1065C107.439 54.9753 110.478 57.8252 114.206 57.8252C117.935 57.8252 120.973 54.9753 120.973 51.1065C120.972 47.2141 117.933 44.3879 114.206 44.3879ZM114.206 55.1807C112.163 55.1807 110.402 53.5014 110.402 51.1081C110.402 48.6895 112.164 47.0356 114.206 47.0356C116.249 47.0356 118.009 48.6895 118.009 51.1081C118.009 53.4998 116.249 55.1807 114.206 55.1807ZM99.4435 44.3879C95.7158 44.3879 92.6775 47.2141 92.6775 51.1065C92.6775 54.9753 95.7158 57.8252 99.4435 57.8252C103.173 57.8252 106.211 54.9753 106.211 51.1065C106.211 47.2141 103.173 44.3879 99.4435 44.3879ZM99.4435 55.1807C97.4005 55.1807 95.6397 53.5014 95.6397 51.1081C95.6397 48.6895 97.4021 47.0356 99.4435 47.0356C101.486 47.0356 103.247 48.6895 103.247 51.1081C103.249 53.4998 101.486 55.1807 99.4435 55.1807ZM81.8857 46.4511V49.3009H88.7294C88.5249 50.9043 87.9892 52.0749 87.1714 52.8885C86.1761 53.8806 84.6181 54.9753 81.8857 54.9753C77.6729 54.9753 74.3795 51.5899 74.3795 47.391C74.3795 43.1921 77.6729 39.8067 81.8857 39.8067C84.1585 39.8067 85.8179 40.6977 87.043 41.843L89.0607 39.832C87.3489 38.2033 85.0777 36.9568 81.8857 36.9568C76.115 36.9568 71.2635 41.6392 71.2635 47.391C71.2635 53.1428 76.115 57.8252 81.8857 57.8252C85.0001 57.8252 87.3505 56.8062 89.1875 54.8979C91.0767 53.0149 91.6647 50.3672 91.6647 48.2298C91.6647 47.5695 91.614 46.9582 91.511 46.4495L81.8857 46.4511ZM153.696 48.6643C153.135 47.1635 151.423 44.3879 147.925 44.3879C144.452 44.3879 141.566 47.1114 141.566 51.1065C141.566 54.8726 144.427 57.8252 148.256 57.8252C151.345 57.8252 153.133 55.9421 153.875 54.8474L151.577 53.3198C150.811 54.4398 149.763 55.1775 148.256 55.1775C146.75 55.1775 145.677 54.4903 144.988 53.1412L154.002 49.4257L153.696 48.6643ZM144.503 50.9043C144.427 48.3072 146.521 46.985 148.028 46.985C149.202 46.985 150.198 47.5711 150.531 48.4099L144.503 50.9043ZM137.176 57.4192H140.137V37.6709H137.176V57.4192ZM132.323 45.8903H132.221C131.557 45.1004 130.28 44.3879 128.673 44.3879C125.302 44.3879 122.213 47.3405 122.213 51.1334C122.213 54.8995 125.302 57.8267 128.673 57.8267C130.281 57.8267 131.557 57.1143 132.221 56.3007H132.323V57.2675C132.323 59.8377 130.944 61.2121 128.723 61.2121C126.91 61.2121 125.787 59.9151 125.327 58.8204L122.748 59.8899C123.488 61.6702 125.454 63.8597 128.723 63.8597C132.196 63.8597 135.133 61.8235 135.133 56.8599V44.7971H132.324L132.323 45.8903ZM128.928 55.1807C126.885 55.1807 125.175 53.4746 125.175 51.1334C125.175 48.7654 126.885 47.0356 128.928 47.0356C130.944 47.0356 132.527 48.7654 132.527 51.1334C132.527 53.4746 130.944 55.1807 128.928 55.1807ZM167.57 37.6709H160.484V57.4192H163.44V49.9375H167.569C170.846 49.9375 174.07 47.5727 174.07 43.805C174.07 40.0373 170.848 37.6709 167.57 37.6709ZM167.646 47.1888H163.44V40.4196H167.646C169.857 40.4196 171.112 42.2442 171.112 43.805C171.112 45.3342 169.857 47.1888 167.646 47.1888ZM185.924 44.3532C183.782 44.3532 181.565 45.2931 180.647 47.3768L183.272 48.4684C183.833 47.3768 184.879 47.0198 185.974 47.0198C187.504 47.0198 189.059 47.9344 189.084 49.56V49.7638C188.548 49.4589 187.401 49.0023 186 49.0023C183.171 49.0023 180.289 50.5521 180.289 53.4477C180.289 56.0906 182.609 57.792 185.209 57.792C187.196 57.792 188.293 56.9026 188.981 55.86H189.082V57.3844H191.938V49.8127C191.94 46.3089 189.312 44.3532 185.924 44.3532ZM185.565 55.1759C184.599 55.1759 183.247 54.6925 183.247 53.4983C183.247 51.9738 184.93 51.3893 186.383 51.3893C187.681 51.3893 188.295 51.6689 189.084 52.0496C188.854 53.8806 187.274 55.1759 185.565 55.1759ZM202.339 44.7844L198.949 53.3466H198.847L195.329 44.7844H192.143L197.419 56.7509L194.411 63.4079H197.495L205.627 44.7844H202.339ZM175.702 57.4192H178.658V37.6709H175.702V57.4192Z" fill="#090909"/>
<path d="M72.0302 29.6257V21.866H74.3916C74.4745 21.866 74.615 21.8678 74.8131 21.8714C75.0149 21.875 75.2076 21.8894 75.3913 21.9145C75.9821 21.9972 76.4757 22.2163 76.8719 22.5719C77.2682 22.9276 77.5654 23.3803 77.7635 23.9299C77.9617 24.4795 78.0607 25.0849 78.0607 25.7459C78.0607 26.4069 77.9617 27.0122 77.7635 27.5619C77.5654 28.1115 77.2682 28.5642 76.8719 28.9198C76.4757 29.2755 75.9821 29.4946 75.3913 29.5772C75.2112 29.5988 75.0185 29.6132 74.8131 29.6203C74.6078 29.6239 74.4673 29.6257 74.3916 29.6257H72.0302ZM72.8516 28.8659H74.3916C74.5393 28.8659 74.6979 28.8623 74.8672 28.8551C75.0401 28.8444 75.1878 28.8264 75.3103 28.8013C75.7642 28.7222 76.1298 28.539 76.4072 28.2516C76.6882 27.9642 76.8935 27.605 77.0232 27.1739C77.1529 26.7392 77.2178 26.2632 77.2178 25.7459C77.2178 25.225 77.1529 24.7472 77.0232 24.3125C76.8935 23.8778 76.6882 23.5186 76.4072 23.2348C76.1262 22.951 75.7606 22.7695 75.3103 22.6905C75.1878 22.6654 75.0383 22.6492 74.8618 22.642C74.6888 22.6312 74.5321 22.6258 74.3916 22.6258H72.8516V28.8659Z" fill="black"/>
<path d="M79.3995 22.7013V21.8121H80.1938V22.7013H79.3995ZM79.3995 29.6257V23.806H80.1938V29.6257H79.3995Z" fill="black"/>
<path d="M83.9915 29.782C83.307 29.782 82.7432 29.6347 82.3001 29.3401C81.8606 29.0455 81.5905 28.636 81.4896 28.1115L82.3001 27.9768C82.3866 28.3073 82.5829 28.5713 82.8891 28.7689C83.199 28.9629 83.5808 29.0599 84.0347 29.0599C84.4778 29.0599 84.8273 28.9683 85.083 28.7851C85.3388 28.5983 85.4667 28.345 85.4667 28.0253C85.4667 27.8457 85.4253 27.7002 85.3424 27.5888C85.2632 27.4739 85.0992 27.3679 84.8507 27.2709C84.6021 27.1739 84.231 27.0589 83.7375 26.926C83.208 26.7823 82.7937 26.6386 82.4947 26.4949C82.1957 26.3512 81.9831 26.186 81.857 25.9991C81.731 25.8087 81.6679 25.577 81.6679 25.304C81.6679 24.9735 81.7616 24.6843 81.9489 24.4364C82.1362 24.185 82.3956 23.991 82.727 23.8545C83.0585 23.7143 83.4439 23.6443 83.8834 23.6443C84.3229 23.6443 84.7156 23.7161 85.0614 23.8598C85.4109 23.9999 85.6918 24.1975 85.9044 24.4526C86.1169 24.7077 86.243 25.004 86.2826 25.3417L85.4721 25.4872C85.4181 25.1459 85.2469 24.8765 84.9587 24.6789C84.6742 24.4777 84.3121 24.3736 83.8726 24.3664C83.4583 24.3556 83.1215 24.4346 82.8621 24.6035C82.6028 24.7687 82.4731 24.9897 82.4731 25.2663C82.4731 25.4208 82.5199 25.5537 82.6136 25.6651C82.7072 25.7728 82.8765 25.8752 83.1215 25.9722C83.3701 26.0692 83.7231 26.1752 84.1806 26.2901C84.7174 26.4266 85.1389 26.5703 85.4451 26.7212C85.7513 26.8721 85.9692 27.0499 86.0989 27.2547C86.2286 27.4595 86.2934 27.7127 86.2934 28.0145C86.2934 28.5642 86.0881 28.9971 85.6774 29.3132C85.2704 29.6257 84.7084 29.782 83.9915 29.782Z" fill="black"/>
<path d="M90.1127 29.7874C89.5759 29.7874 89.122 29.6527 88.7509 29.3832C88.3799 29.1102 88.0989 28.742 87.908 28.2786C87.717 27.8115 87.6216 27.2888 87.6216 26.7105C87.6216 26.1213 87.717 25.5968 87.908 25.137C88.1025 24.6735 88.3871 24.3089 88.7617 24.0431C89.1364 23.7772 89.5975 23.6443 90.1451 23.6443C90.6782 23.6443 91.1357 23.779 91.5176 24.0484C91.8995 24.3179 92.1913 24.6843 92.393 25.1477C92.5983 25.6112 92.701 26.1321 92.701 26.7105C92.701 27.2924 92.5983 27.8151 92.393 28.2786C92.1877 28.742 91.8923 29.1102 91.5068 29.3832C91.1213 29.6527 90.6566 29.7874 90.1127 29.7874ZM87.4865 32.2123V23.806H88.1998V28.187H88.2862V32.2123H87.4865ZM90.0316 29.0491C90.4387 29.0491 90.7773 28.9468 91.0475 28.742C91.3177 28.5372 91.5194 28.2588 91.6527 27.9067C91.7896 27.5511 91.858 27.1523 91.858 26.7105C91.858 26.2722 91.7914 25.877 91.6581 25.5249C91.5248 25.1729 91.3213 24.8945 91.0475 24.6897C90.7773 24.4849 90.4333 24.3825 90.0154 24.3825C89.6083 24.3825 89.2697 24.4813 88.9995 24.6789C88.7329 24.8765 88.533 25.1513 88.3997 25.5034C88.2664 25.8519 88.1998 26.2542 88.1998 26.7105C88.1998 27.1595 88.2664 27.5619 88.3997 27.9175C88.533 28.2696 88.7347 28.5462 89.0049 28.7474C89.2751 28.9486 89.6173 29.0491 90.0316 29.0491Z" fill="black"/>
<path d="M96.3247 29.7874C95.7447 29.7874 95.2493 29.6563 94.8387 29.394C94.428 29.1318 94.1128 28.7689 93.893 28.3055C93.6733 27.8421 93.5634 27.3104 93.5634 26.7105C93.5634 26.0997 93.6751 25.5645 93.8984 25.1046C94.1218 24.6448 94.4388 24.2873 94.8495 24.0323C95.2637 23.7736 95.7555 23.6443 96.3247 23.6443C96.9083 23.6443 97.4054 23.7754 97.8161 24.0377C98.2304 24.2963 98.5456 24.6574 98.7617 25.1208C98.9815 25.5806 99.0913 26.1105 99.0913 26.7105C99.0913 27.3212 98.9815 27.8582 98.7617 28.3217C98.542 28.7815 98.2249 29.1407 97.8107 29.3994C97.3964 29.6581 96.9011 29.7874 96.3247 29.7874ZM96.3247 29.0276C96.9731 29.0276 97.4558 28.8138 97.7728 28.3863C98.0899 27.9552 98.2484 27.3966 98.2484 26.7105C98.2484 26.0063 98.0881 25.4459 97.7674 25.0292C97.4504 24.6125 96.9695 24.4041 96.3247 24.4041C95.8888 24.4041 95.5285 24.5029 95.2439 24.7005C94.9629 24.8945 94.7522 25.1657 94.6117 25.5142C94.4748 25.859 94.4064 26.2578 94.4064 26.7105C94.4064 27.411 94.5685 27.9732 94.8927 28.3971C95.2169 28.8174 95.6942 29.0276 96.3247 29.0276Z" fill="black"/>
<path d="M104.498 29.6257V26.6566C104.498 26.3332 104.468 26.0369 104.406 25.7674C104.345 25.4944 104.246 25.2573 104.109 25.0561C103.976 24.8514 103.801 24.6933 103.585 24.5819C103.372 24.4706 103.113 24.4149 102.807 24.4149C102.526 24.4149 102.277 24.4634 102.061 24.5604C101.849 24.6574 101.668 24.7975 101.521 24.9807C101.377 25.1603 101.267 25.3794 101.191 25.6381C101.116 25.8968 101.078 26.1913 101.078 26.5219L100.516 26.3979C100.516 25.8016 100.62 25.3004 100.829 24.8945C101.038 24.4885 101.326 24.1814 101.694 23.973C102.061 23.7646 102.483 23.6605 102.958 23.6605C103.308 23.6605 103.612 23.7143 103.871 23.8221C104.134 23.9299 104.356 24.0754 104.536 24.2586C104.72 24.4418 104.867 24.652 104.979 24.8891C105.091 25.1226 105.172 25.3723 105.222 25.6381C105.273 25.9004 105.298 26.1626 105.298 26.4249V29.6257H104.498ZM100.278 29.6257V23.806H100.997V25.2393H101.078V29.6257H100.278Z" fill="black"/>
<path d="M107.559 22.8899H106.879L107.522 21.2194H108.202L107.559 22.8899ZM106.808 29.6257V23.806H107.603V29.6257H106.808Z" fill="black"/>
<path d="M110.8 29.6257L108.682 23.806H109.487L111.211 28.5911L112.924 23.806H113.74L111.622 29.6257H110.8Z" fill="black"/>
<path d="M116.969 29.7874C116.4 29.7874 115.906 29.6617 115.488 29.4102C115.074 29.1587 114.752 28.8049 114.521 28.3486C114.291 27.8924 114.175 27.3571 114.175 26.7428C114.175 26.1069 114.289 25.5573 114.516 25.0939C114.743 24.6304 115.062 24.273 115.472 24.0215C115.887 23.77 116.375 23.6443 116.937 23.6443C117.513 23.6443 118.005 23.7772 118.412 24.0431C118.819 24.3053 119.127 24.6825 119.336 25.1747C119.545 25.6668 119.64 26.2542 119.622 26.9368H118.812V26.6566C118.797 25.9022 118.633 25.3328 118.32 24.9484C118.01 24.564 117.556 24.3718 116.958 24.3718C116.331 24.3718 115.851 24.5747 115.515 24.9807C115.184 25.3866 115.018 25.965 115.018 26.7158C115.018 27.4487 115.184 28.0181 115.515 28.4241C115.851 28.8264 116.324 29.0276 116.937 29.0276C117.355 29.0276 117.718 28.9324 118.028 28.742C118.342 28.548 118.588 28.2696 118.769 27.9067L119.509 28.1923C119.278 28.6989 118.938 29.0922 118.488 29.3725C118.041 29.6491 117.535 29.7874 116.969 29.7874ZM114.737 26.9368V26.274H119.195V26.9368H114.737Z" fill="black"/>
<path d="M120.93 29.6257V21.7044H121.724V29.6257H120.93Z" fill="black"/>
<path d="M129.722 29.6257V26.6566C129.722 26.3332 129.692 26.0369 129.63 25.7674C129.569 25.4944 129.47 25.2573 129.333 25.0561C129.2 24.8514 129.025 24.6933 128.809 24.5819C128.597 24.4706 128.337 24.4149 128.031 24.4149C127.75 24.4149 127.501 24.4634 127.285 24.5604C127.073 24.6574 126.893 24.7975 126.745 24.9807C126.601 25.1603 126.491 25.3794 126.415 25.6381C126.34 25.8968 126.302 26.1913 126.302 26.5219L125.74 26.3979C125.74 25.8016 125.844 25.3004 126.053 24.8945C126.262 24.4885 126.55 24.1814 126.918 23.973C127.285 23.7646 127.707 23.6605 128.182 23.6605C128.532 23.6605 128.836 23.7143 129.095 23.8221C129.358 23.9299 129.58 24.0754 129.76 24.2586C129.944 24.4418 130.092 24.652 130.203 24.8891C130.315 25.1226 130.396 25.3723 130.446 25.6381C130.497 25.9004 130.522 26.1626 130.522 26.4249V29.6257H129.722ZM125.502 29.6257V23.806H126.221V25.2393H126.302V29.6257H125.502Z" fill="black"/>
<path d="M134.33 29.7874C133.75 29.7874 133.254 29.6563 132.844 29.394C132.433 29.1318 132.118 28.7689 131.898 28.3055C131.678 27.8421 131.568 27.3104 131.568 26.7105C131.568 26.0997 131.68 25.5645 131.903 25.1046C132.127 24.6448 132.444 24.2873 132.854 24.0323C133.269 23.7736 133.76 23.6443 134.33 23.6443C134.913 23.6443 135.41 23.7754 135.821 24.0377C136.235 24.2963 136.551 24.6574 136.767 25.1208C136.986 25.5806 137.096 26.1105 137.096 26.7105C137.096 27.3212 136.986 27.8582 136.767 28.3217C136.547 28.7815 136.23 29.1407 135.816 29.3994C135.401 29.6581 134.906 29.7874 134.33 29.7874ZM134.33 29.0276C134.978 29.0276 135.461 28.8138 135.778 28.3863C136.095 27.9552 136.253 27.3966 136.253 26.7105C136.253 26.0063 136.093 25.4459 135.772 25.0292C135.455 24.6125 134.975 24.4041 134.33 24.4041C133.894 24.4041 133.534 24.5029 133.249 24.7005C132.968 24.8945 132.757 25.1657 132.617 25.5142C132.48 25.859 132.411 26.2578 132.411 26.7105C132.411 27.411 132.573 27.9732 132.898 28.3971C133.222 28.8174 133.699 29.0276 134.33 29.0276Z" fill="black"/>
<defs>
<linearGradient id="paint0_linear_2_2961" x1="207.748" y1="4.31449" x2="186.962" y2="112.787" gradientUnits="userSpaceOnUse">
<stop stop-color="#00A0FF"/>
<stop offset="0.0066" stop-color="#00A1FF"/>
<stop offset="0.2601" stop-color="#00BEFF"/>
<stop offset="0.5122" stop-color="#00D2FF"/>
<stop offset="0.7604" stop-color="#00DFFF"/>
<stop offset="1" stop-color="#00E3FF"/>
</linearGradient>
<linearGradient id="paint1_linear_2_2961" x1="244.088" y1="42.1416" x2="-293.93" y2="42.1416" gradientUnits="userSpaceOnUse">
<stop stop-color="#FFE000"/>
<stop offset="0.4087" stop-color="#FFBD00"/>
<stop offset="0.7754" stop-color="#FFA500"/>
<stop offset="1" stop-color="#FF9C00"/>
</linearGradient>
<linearGradient id="paint2_linear_2_2961" x1="195.88" y1="15.1292" x2="79.563" y2="256.333" gradientUnits="userSpaceOnUse">
<stop stop-color="#FF3A44"/>
<stop offset="1" stop-color="#C31162"/>
</linearGradient>
<linearGradient id="paint3_linear_2_2961" x1="-41.5609" y1="-45.3385" x2="10.3753" y2="62.3635" gradientUnits="userSpaceOnUse">
<stop stop-color="#32A071"/>
<stop offset="0.0685" stop-color="#2DA771"/>
<stop offset="0.4762" stop-color="#15CF74"/>
<stop offset="0.8009" stop-color="#06E775"/>
<stop offset="1" stop-color="#00F076"/>
</linearGradient>
</defs>
</svg>
