<?xml version="1.0" encoding="UTF-8"?>
<svg id="Layer_2" data-name="Layer 2" xmlns="http://www.w3.org/2000/svg" viewBox="0 0 152.61 161.57">
  <defs>
    <style>
      .cls-1 {
        fill: #fff;
        stroke-width: 0px;
      }
    </style>
  </defs>
  <g id="Camada_1" data-name="Camada 1">
    <path class="cls-1" d="M132.52,8.96h-40.51l.78,1.18c2.77,4.22,5.63,8.38,8.51,12.51h29.82c4.29,0,7.79,3.51,7.79,7.79v109.63c0,4.29-3.51,7.79-7.79,7.79H21.49c-4.29,0-7.79-3.51-7.79-7.79V30.45c0-4.29,3.51-7.79,7.79-7.79h29.99c2.54-3.72,5.04-7.47,7.51-11.23l1.62-2.46H20.09C9.04,8.96,0,18,0,29.04v112.43c0,11.05,9.04,20.09,20.09,20.09h112.43c11.05,0,20.09-9.04,20.09-20.09V29.04c0-11.05-9.04-20.09-20.09-20.09Z"/>
    <path class="cls-1" d="M113.23,66.03c0,9.66-3.69,19.31-11.09,26.68-7.13,7.11-16.48,10.67-25.84,10.67s-18.7-3.56-25.84-10.67c-13.55-13.5-14.68-34.7-3.39-49.5,5.3-6.93,10.16-14.16,14.94-21.45l7.24-11.02,7.05-10.74,7.06,10.74,6.54,9.97c5.24,7.99,10.84,15.74,16.39,23.53,4.63,6.51,6.94,14.15,6.94,21.79Z"/>
    <g>
      <rect class="cls-1" x="21.33" y="112.34" width="12.43" height="12.43"/>
      <rect class="cls-1" x="37.58" y="112.34" width="12.43" height="12.43"/>
      <rect class="cls-1" x="53.83" y="112.34" width="12.43" height="12.43"/>
      <rect class="cls-1" x="70.09" y="112.34" width="12.43" height="12.43"/>
      <rect class="cls-1" x="86.34" y="112.34" width="12.43" height="12.43"/>
      <rect class="cls-1" x="102.59" y="112.34" width="12.43" height="12.43"/>
      <rect class="cls-1" x="118.85" y="112.34" width="12.43" height="12.43"/>
    </g>
    <path class="cls-1" d="M21.33,128.51v7.44c0,2.76,2.24,4.99,4.99,4.99h7.44v-12.43h-12.43Z"/>
    <rect class="cls-1" x="37.58" y="128.51" width="12.43" height="12.43"/>
    <rect class="cls-1" x="53.83" y="128.51" width="12.43" height="12.43"/>
    <rect class="cls-1" x="70.09" y="128.51" width="12.43" height="12.43"/>
    <rect class="cls-1" x="86.34" y="128.51" width="12.43" height="12.43"/>
    <rect class="cls-1" x="102.59" y="128.51" width="12.43" height="12.43"/>
    <path class="cls-1" d="M118.85,128.51v12.43h7.44c2.76,0,4.99-2.23,4.99-4.99v-7.44h-12.43Z"/>
  </g>
</svg>