<svg width="170" height="62" viewBox="0 0 170 62" fill="none" xmlns="http://www.w3.org/2000/svg">
<g clip-path="url(#clip0_2_2994)">
<path d="M52.3985 3.43816H36.671L36.9738 3.89097C38.0492 5.51033 39.1596 7.10667 40.2777 8.69149H51.855C53.5205 8.69149 54.8794 10.0384 54.8794 11.6808V53.7496C54.8794 55.3958 53.5166 56.7389 51.855 56.7389H9.29245C7.62691 56.7389 6.26808 55.392 6.26808 53.7496V11.6846C6.26808 10.0384 7.6308 8.69533 9.29245 8.69533H20.9357C21.9218 7.26783 22.8924 5.82883 23.8514 4.38599L24.4803 3.442H8.74892C4.45889 3.43816 0.949219 6.90712 0.949219 11.1436V54.2868C0.949219 58.5271 4.45889 61.9961 8.74892 61.9961H52.3985C56.6886 61.9961 60.1982 58.5271 60.1982 54.2868V11.1436C60.1982 6.90329 56.6886 3.43433 52.3985 3.43433V3.43816Z" fill="#6DAAC9"/>
<path d="M44.9094 25.338C44.9094 29.0449 43.4768 32.7479 40.6039 35.576C37.8357 38.3044 34.2057 39.6705 30.5718 39.6705C26.9379 39.6705 23.3117 38.3044 20.5397 35.576C15.2791 30.3956 14.8404 22.2604 19.2236 16.5812C21.2813 13.9219 23.1681 11.1475 25.0239 8.35006L27.8347 4.12131L30.5718 0L33.3128 4.12131L35.8518 7.94714C37.8862 11.0132 40.0603 13.9871 42.2151 16.9764C44.0126 19.4745 44.9094 22.4063 44.9094 25.338Z" fill="#6DAAC9"/>
<path d="M14.0561 43.1086H9.23035V47.8785H14.0561V43.1086Z" fill="#6DAAC9"/>
<path d="M20.365 43.1086H15.5392V47.8785H20.365V43.1086Z" fill="#6DAAC9"/>
<path d="M26.6739 43.1086H21.8481V47.8785H26.6739V43.1086Z" fill="#6DAAC9"/>
<path d="M32.9866 43.1086H28.1608V47.8785H32.9866V43.1086Z" fill="#6DAAC9"/>
<path d="M39.2955 43.1086H34.4697V47.8785H39.2955V43.1086Z" fill="#6DAAC9"/>
<path d="M45.6044 43.1086H40.7786V47.8785H45.6044V43.1086Z" fill="#6DAAC9"/>
<path d="M51.9171 43.1086H47.0913V47.8785H51.9171V43.1086Z" fill="#6DAAC9"/>
<path d="M9.23035 49.3137V52.1687C9.23035 53.2278 10.1 54.0835 11.1677 54.0835H14.0561V49.3137H9.23035Z" fill="#6DAAC9"/>
<path d="M20.365 49.3137H15.5392V54.0835H20.365V49.3137Z" fill="#6DAAC9"/>
<path d="M26.6739 49.3137H21.8481V54.0835H26.6739V49.3137Z" fill="#6DAAC9"/>
<path d="M32.9866 49.3137H28.1608V54.0835H32.9866V49.3137Z" fill="#6DAAC9"/>
<path d="M39.2955 49.3137H34.4697V54.0835H39.2955V49.3137Z" fill="#6DAAC9"/>
<path d="M45.6044 49.3137H40.7786V54.0835H45.6044V49.3137Z" fill="#6DAAC9"/>
<path d="M47.0913 49.3137V54.0835H49.9798C51.0513 54.0835 51.9171 53.2278 51.9171 52.1687V49.3137H47.0913Z" fill="#6DAAC9"/>
<path d="M78.4299 24.578V25.4683L77.2574 25.7216L77.8476 23.0124H79.1792L79.1093 25.6717C78.1698 26.1859 76.9391 26.5504 75.4327 26.5504C72.0589 26.5504 69.3529 24.5857 69.3529 20.545C69.3529 16.5043 72.2686 14.5396 75.5569 14.5396C76.8808 14.5396 77.9485 14.8312 78.9851 15.3953L79.055 18.0776H77.7233L77.1215 15.3416L78.294 15.6102V16.5657C77.4593 15.8251 76.7566 15.5181 75.9685 15.5181C74.0972 15.5181 72.4549 17.0223 72.4549 20.5603C72.4549 24.0984 74.0312 25.5642 75.8831 25.5642C76.7566 25.5642 77.6107 25.2074 78.4299 24.5819V24.578Z" fill="#6DAAC9"/>
<path d="M83.5818 21.4085C84.3039 21.1974 85.5463 20.8751 86.3694 20.6832V21.4046C85.5424 21.6118 84.599 21.8651 84.0865 22.0953C83.2945 22.4254 82.7782 23.0086 82.7782 23.8221C82.7782 24.6894 83.2402 25.0885 83.8303 25.0885C84.1642 25.0885 84.4398 24.9503 84.9989 24.5474L85.7016 24.0255L85.8841 24.275L85.1503 25.0654C84.3001 25.9557 83.7565 26.4891 82.487 26.4891C81.132 26.4891 80.1925 25.6986 80.1925 24.275C80.1925 23.0432 80.8836 22.1759 83.5818 21.4046V21.4085ZM84.9135 24.8122V20.4798C84.9135 18.9449 84.6145 18.4921 83.4964 18.4921C83.0693 18.4921 82.619 18.5458 81.858 18.7415L83.0655 18.0661L82.9373 19.2672C82.8946 20.4184 82.3278 20.8827 81.6523 20.8827C81.0272 20.8827 80.6079 20.5873 80.472 20.0155C80.5652 18.5765 81.9745 17.6018 84.4942 17.6018C86.7382 17.6018 87.6273 18.542 87.6273 20.8559V24.7354C87.6273 25.077 87.7709 25.242 88.0233 25.242C88.2057 25.242 88.3494 25.1499 88.5551 24.8621L89.0172 25.1691C88.5979 26.113 87.9728 26.4776 86.909 26.4776C85.7171 26.4776 85.0649 25.8598 84.9135 24.8122Z" fill="#6DAAC9"/>
<path d="M92.9888 13.6609L93.2723 13.8374L93.2024 16.2588V22.5981C93.2024 23.8107 93.2218 25.0194 93.2567 26.232H90.3605C90.3954 25.0194 90.4148 23.8107 90.4148 22.5981V15.3455L89.3278 15.1728V14.4437L92.9927 13.6647L92.9888 13.6609ZM94.2001 25.4224V26.2282H89.4132V25.4224L91.0865 25.077H92.4104L94.2001 25.4224Z" fill="#6DAAC9"/>
<path d="M103.234 21.2588C103.234 21.631 103.207 21.9035 103.137 22.1913H96.2849V21.278H99.5656C100.404 21.278 100.625 20.9672 100.625 20.1959C100.625 19.06 100.074 18.4959 99.4413 18.4959C98.7114 18.4959 98.0475 19.2787 98.0475 21.7807C98.0475 23.8912 99.1036 24.8429 100.412 24.8429C101.355 24.8429 102.004 24.4553 102.536 23.9142L103.141 24.4745C102.423 25.8291 101.165 26.4929 99.4685 26.4929C96.9217 26.4929 95.1086 24.8467 95.1086 22.0531C95.1086 19.2595 97.3604 17.6018 99.6199 17.6018C101.879 17.6018 103.238 19.1636 103.238 21.255L103.234 21.2588Z" fill="#6DAAC9"/>
<path d="M105.133 26.2281C105.168 25.4491 105.183 23.6686 105.183 22.5941V21.5926C105.183 20.6409 105.164 20.2802 105.133 19.5856L104.061 19.4283V18.7491L107.517 17.5979L107.816 17.7821L107.975 19.7008V22.5865C107.975 23.6609 107.994 25.4414 108.029 26.2204H105.133V26.2281ZM108.825 25.4222V26.2281H104.217V25.4222L105.84 25.0769H107.175L108.825 25.4222ZM113.247 20.5757V22.5903C113.247 23.6993 113.267 25.4453 113.301 26.2243H110.405C110.44 25.4453 110.46 23.6993 110.46 22.5903V20.7752C110.46 19.6662 110.18 19.271 109.481 19.271C108.86 19.271 108.014 19.7276 107.319 20.5411H106.725V19.4245H107.909L107.245 19.9118C108.472 18.1582 109.47 17.5979 110.724 17.5979C112.242 17.5979 113.251 18.5764 113.251 20.5757H113.247ZM112.432 25.073L114.144 25.4184V26.2243H109.524V25.4184L111.108 25.073H112.432Z" fill="#6DAAC9"/>
<path d="M119.801 24.9925C120.643 24.9925 121.229 24.3747 121.784 23.5266L121.994 23.8067C121.128 25.6563 120.065 26.4929 118.508 26.4929C116.524 26.4929 115.014 24.9464 115.014 22.1221C115.014 19.2978 116.893 17.6017 118.869 17.6017C120.383 17.6017 121.117 18.4229 121.924 19.9617L121.749 20.2994C121.062 19.4782 120.565 19.0676 119.847 19.0676C118.787 19.0676 117.976 20.0423 117.976 22.0914C117.976 23.9948 118.721 24.9925 119.801 24.9925ZM124.529 25.4261V26.2319L121.105 26.4315L120.88 24.8927V19.1482L120.985 18.9602V15.3492L119.758 15.1765V14.4474L123.458 13.6685L123.741 13.845L123.671 16.2663V26.2396L122.483 24.981L124.533 25.4338L124.529 25.4261Z" fill="#6DAAC9"/>
<path d="M128.664 21.4085C129.386 21.1974 130.628 20.8751 131.455 20.6832V21.4046C130.628 21.6119 129.685 21.8651 129.173 22.0954C128.381 22.4254 127.864 23.0086 127.864 23.8222C127.864 24.6894 128.326 25.0885 128.916 25.0885C129.25 25.0885 129.526 24.9503 130.085 24.5474L130.788 24.0255L130.97 24.275L130.236 25.0655C129.386 25.9557 128.843 26.4891 127.573 26.4891C126.218 26.4891 125.279 25.6986 125.279 24.275C125.279 23.0432 125.97 22.1759 128.668 21.4046L128.664 21.4085ZM129.996 24.8122V20.4798C129.996 18.9449 129.693 18.4921 128.579 18.4921C128.152 18.4921 127.701 18.5458 126.94 18.7415L128.148 18.0661L128.02 19.2672C127.977 20.4184 127.41 20.8828 126.734 20.8828C126.109 20.8828 125.69 20.5873 125.554 20.0155C125.647 18.5765 127.057 17.6018 129.576 17.6018C131.82 17.6018 132.709 18.542 132.709 20.8559V24.7355C132.709 25.077 132.853 25.242 133.105 25.242C133.288 25.242 133.432 25.1499 133.637 24.8621L134.103 25.1691C133.684 26.1131 133.059 26.4776 131.995 26.4776C130.803 26.4776 130.151 25.8598 130 24.8122H129.996ZM129.716 13.8834C130.19 13.116 130.524 12.7898 131.098 12.7898C131.568 12.7898 132.049 13.1467 132.049 13.753C132.049 14.2633 131.634 14.7008 130.947 15.2073C129.918 15.9594 129.472 16.3086 129.013 16.6502L128.35 16.1206C128.656 15.5949 128.975 15.0807 129.72 13.8796L129.716 13.8834Z" fill="#6DAAC9"/>
<path d="M135.47 22.5942V21.5811C135.47 20.6295 135.45 20.2803 135.415 19.5896L134.344 19.4322V18.753L137.799 17.6018L138.098 17.786L138.257 19.9119V22.5942C138.257 23.6687 138.277 25.4492 138.312 26.2282H135.415C135.45 25.4492 135.47 23.6687 135.47 22.5942ZM134.484 25.4223L136.157 25.077H137.997L139.671 25.4223V26.2282H134.484V25.4223ZM136.965 20.3071H138.277L138.04 20.7791C138.347 18.6571 139.566 17.6018 140.614 17.6018C141.375 17.6018 141.988 18.0201 142.136 18.8758C142.097 19.7776 141.592 20.2879 140.894 20.2879C140.366 20.2879 139.958 20.0308 139.539 19.4859L139.026 18.8259L139.733 19.0792C139.104 19.532 138.471 20.4491 138.246 21.4814L136.961 21.3547V20.3071H136.965Z" fill="#6DAAC9"/>
<path d="M143.592 26.2282C143.627 25.4492 143.646 23.6687 143.646 22.5942V21.7692C143.646 20.8175 143.627 20.2803 143.592 19.5896L142.509 19.4322V18.753L146.174 17.6018L146.476 17.786L146.422 20.2956V22.5904C146.422 23.6648 146.441 25.4454 146.476 26.2243H143.592V26.2282ZM147.323 25.4223V26.2282H142.676V25.4223L144.298 25.077H145.622L147.323 25.4223ZM143.518 14.9425C143.518 14.1367 144.178 13.5649 145.001 13.5649C145.824 13.5649 146.484 14.1367 146.484 14.9425C146.484 15.7484 145.824 16.3202 145.001 16.3202C144.178 16.3202 143.518 15.7446 143.518 14.9425Z" fill="#6DAAC9"/>
<path d="M148.188 22.0148C148.188 19.3555 150.13 17.6057 152.634 17.6057C155.138 17.6057 157.079 19.3172 157.079 22.0148C157.079 24.7125 155.344 26.493 152.634 26.493C149.924 26.493 148.188 24.6741 148.188 22.0148ZM154.117 22.0532C154.117 19.5973 153.616 18.5075 152.634 18.5075C151.652 18.5075 151.155 19.5973 151.155 22.0532C151.155 24.5091 151.648 25.5912 152.634 25.5912C153.62 25.5912 154.117 24.5206 154.117 22.0532Z" fill="#6DAAC9"/>
<path d="M74.0583 42.2952C74.9008 42.2952 75.4871 41.6774 76.0422 40.8293L76.2519 41.1095C75.3861 42.9591 74.3223 43.7956 72.7655 43.7956C70.7816 43.7956 69.2714 42.2492 69.2714 39.4249C69.2714 36.6006 71.1504 34.9045 73.1266 34.9045C74.6407 34.9045 75.3745 35.7257 76.182 37.2644L76.0073 37.6021C75.3201 36.7809 74.8232 36.3703 74.1049 36.3703C73.045 36.3703 72.2336 37.345 72.2336 39.3942C72.2336 41.2975 72.979 42.2952 74.0583 42.2952ZM78.7871 42.7288V43.5347L75.3628 43.7342L75.1376 42.1954V36.4509L75.2425 36.2629V32.6519L74.0156 32.4793V31.7502L77.7155 30.9712L77.999 31.1477L77.9291 33.5691V43.5423L76.7411 42.2837L78.791 42.7365L78.7871 42.7288Z" fill="#6DAAC9"/>
<path d="M79.6645 39.3173C79.6645 36.658 81.6057 34.9082 84.1098 34.9082C86.6139 34.9082 88.5551 36.6197 88.5551 39.3173C88.5551 42.015 86.8197 43.7955 84.1098 43.7955C81.3999 43.7955 79.6645 41.9766 79.6645 39.3173ZM85.5929 39.3557C85.5929 36.8998 85.0921 35.81 84.1098 35.81C83.1276 35.81 82.6267 36.8998 82.6267 39.3557C82.6267 41.8116 83.1198 42.8937 84.1098 42.8937C85.0998 42.8937 85.5929 41.8231 85.5929 39.3557Z" fill="#6DAAC9"/>
<path d="M93.3732 33.0932V32.1646H96.1918V33.3541H95.9161L93.3732 33.0932ZM96.1918 42.345V43.5346H93.3732V42.606L95.9161 42.345H96.1918ZM94.7204 37.5292C94.7204 35.7486 94.7204 33.9489 94.6699 32.1646H97.7137C97.6593 33.9105 97.6593 35.7103 97.6593 37.5292V38.1009C97.6593 39.9544 97.6593 41.7541 97.7137 43.5346H94.6699C94.7204 41.7886 94.7204 39.9889 94.7204 38.1124V37.5292ZM96.1918 42.5369H98.2727C100.276 42.5369 101.515 40.8408 101.515 37.84C101.515 34.8392 100.276 33.1584 98.3038 33.1584H96.1918V32.1646H98.5756C102.307 32.1646 104.554 34.3173 104.554 37.817C104.554 41.3166 102.089 43.5346 98.265 43.5346H96.1918V42.5407V42.5369Z" fill="#6DAAC9"/>
<path d="M106.581 43.5346C106.616 42.7556 106.635 40.9751 106.635 39.9006V39.0756C106.635 38.1239 106.616 37.5867 106.581 36.896L105.498 36.7386V36.0594L109.163 34.9082L109.462 35.0924L109.411 37.602V39.8968C109.411 40.9712 109.427 42.7518 109.462 43.5307H106.577L106.581 43.5346ZM110.312 42.7287V43.5346H105.665V42.7287L107.288 42.3834H108.612L110.312 42.7287ZM106.507 32.2489C106.507 31.4431 107.167 30.8713 107.99 30.8713C108.813 30.8713 109.473 31.4431 109.473 32.2489C109.473 33.0548 108.813 33.6266 107.99 33.6266C107.167 33.6266 106.507 33.051 106.507 32.2489Z" fill="#6DAAC9"/>
<path d="M114.606 38.7109C115.328 38.4999 116.57 38.1776 117.397 37.9857V38.7071C116.57 38.9143 115.627 39.1676 115.114 39.3978C114.322 39.7278 113.806 40.3111 113.806 41.1246C113.806 41.9919 114.268 42.391 114.858 42.391C115.192 42.391 115.468 42.2528 116.027 41.8499L116.73 41.328L116.912 41.5774L116.178 42.3679C115.332 43.2582 114.784 43.7916 113.515 43.7916C112.16 43.7916 111.22 43.0011 111.22 41.5774C111.22 40.3457 111.912 39.4784 114.61 38.7071L114.606 38.7109ZM115.938 42.1147V37.7823C115.938 36.2474 115.635 35.7946 114.52 35.7946C114.093 35.7946 113.643 35.8483 112.882 36.044L114.09 35.3686L113.961 36.5697C113.919 37.7209 113.352 38.1852 112.676 38.1852C112.051 38.1852 111.632 37.8898 111.496 37.318C111.589 35.879 112.999 34.9043 115.518 34.9043C117.762 34.9043 118.651 35.8444 118.651 38.1584V42.0379C118.651 42.3794 118.795 42.5445 119.047 42.5445C119.23 42.5445 119.373 42.4524 119.579 42.1646L120.041 42.4715C119.622 43.4155 118.997 43.7801 117.933 43.7801C116.741 43.7801 116.089 43.1623 115.938 42.1147Z" fill="#6DAAC9"/>
<path d="M120.472 42.7403L122.111 42.3949L121.381 43.5461C121.416 42.7671 121.435 40.9866 121.435 39.9121V32.6097L120.348 32.4754V31.7463L123.959 30.9673L124.242 31.1438L124.172 33.5652V36.2014L124.226 36.4278V42.2836L123.788 43.7879L120.476 43.5538V42.7479L120.472 42.7403ZM127.177 39.325C127.177 37.2797 126.478 36.4048 125.438 36.4048C124.518 36.4048 123.733 37.3565 123.163 37.9436L123.004 37.6558C124.005 35.7947 125.17 34.9006 126.715 34.9006C128.621 34.9006 130.143 36.401 130.143 39.279C130.143 42.157 128.377 43.7917 126.401 43.7917C124.828 43.7917 123.908 42.9129 123.132 41.1247L123.291 40.7986C124.013 41.7541 124.553 42.3297 125.414 42.3297C126.436 42.3297 127.181 41.3703 127.181 39.325H127.177Z" fill="#6DAAC9"/>
<path d="M139.403 38.5614C139.403 38.9336 139.375 39.206 139.306 39.4939H132.453V38.5806H135.734C136.572 38.5806 136.794 38.2697 136.794 37.4984C136.794 36.3626 136.242 35.7985 135.61 35.7985C134.88 35.7985 134.216 36.5813 134.216 39.0833C134.216 41.1938 135.272 42.1455 136.58 42.1455C137.524 42.1455 138.172 41.7579 138.704 41.2168L139.31 41.7771C138.591 43.1317 137.333 43.7955 135.637 43.7955C133.09 43.7955 131.277 42.1493 131.277 39.3557C131.277 36.5621 133.529 34.9044 135.788 34.9044C138.048 34.9044 139.407 36.4662 139.407 38.5575L139.403 38.5614ZM135.947 31.1898C136.417 30.4224 136.755 30.0962 137.329 30.0962C137.799 30.0962 138.281 30.4531 138.281 31.0594C138.281 31.5697 137.865 32.0072 137.178 32.5137C136.149 33.2658 135.703 33.615 135.245 33.9566L134.581 33.427C134.887 32.9013 135.206 32.3871 135.951 31.186L135.947 31.1898Z" fill="#6DAAC9"/>
<path d="M144.9 42.3796C145.222 42.3796 145.51 42.2491 145.851 41.9958L146.278 42.4141C145.816 43.2929 144.997 43.7956 143.716 43.7956C142.128 43.7956 141.2 43.0972 141.2 41.3895C141.2 40.7871 141.22 40.3228 141.22 39.6474V36.3549H140.09V35.3227L142.159 35.0579L141.157 35.7525L142.264 32.7363H144.05L144.011 35.8523V41.1977C144.011 42.0112 144.384 42.3796 144.904 42.3796H144.9ZM145.844 35.1692V36.3549H142.625V35.1692H145.844Z" fill="#6DAAC9"/>
<path d="M147.598 43.5346C147.633 42.7556 147.653 40.9751 147.653 39.9006V39.0756C147.653 38.1239 147.633 37.5867 147.598 36.896L146.515 36.7386V36.0594L150.18 34.9082L150.483 35.0924L150.429 37.602V39.8968C150.429 40.9712 150.448 42.7518 150.483 43.5307H147.598V43.5346ZM151.329 42.7287V43.5346H146.682V42.7287L148.305 42.3834H149.629L151.329 42.7287ZM147.525 32.2489C147.525 31.4431 148.185 30.8713 149.008 30.8713C149.831 30.8713 150.491 31.4431 150.491 32.2489C150.491 33.0548 149.831 33.6266 149.008 33.6266C148.185 33.6266 147.525 33.051 147.525 32.2489Z" fill="#6DAAC9"/>
<path d="M155.111 39.0564C155.111 41.048 156.081 42.1416 157.553 42.1416C158.391 42.1416 159.02 41.7579 159.525 41.1784L160.135 41.7118C159.459 43.124 158.201 43.7955 156.543 43.7955C154.156 43.7955 152.183 42.2836 152.183 39.3749C152.183 36.4662 154.299 34.9082 156.912 34.9082C158.76 34.9082 160.057 36.0479 160.181 37.4293C159.991 38.051 159.63 38.3311 159.001 38.3311C158.31 38.3311 157.739 37.909 157.658 36.6926L157.498 35.4569L158.772 36.1707C158.228 35.9213 157.77 35.8023 157.219 35.8023C156.213 35.8023 155.115 36.7233 155.115 39.0602L155.111 39.0564Z" fill="#6DAAC9"/>
<path d="M161.055 39.3173C161.055 36.658 162.996 34.9082 165.5 34.9082C168.004 34.9082 169.945 36.6197 169.945 39.3173C169.945 42.015 168.21 43.7955 165.5 43.7955C162.79 43.7955 161.055 41.9766 161.055 39.3173ZM166.983 39.3557C166.983 36.8998 166.482 35.81 165.5 35.81C164.518 35.81 164.021 36.8998 164.021 39.3557C164.021 41.8116 164.514 42.8937 165.5 42.8937C166.486 42.8937 166.983 41.8231 166.983 39.3557Z" fill="#6DAAC9"/>
<path d="M168.194 49.1794H71.034C70.067 49.1794 69.283 49.9543 69.283 50.9101C69.283 51.8659 70.067 52.6407 71.034 52.6407H168.194C169.161 52.6407 169.945 51.8659 169.945 50.9101C169.945 49.9543 169.161 49.1794 168.194 49.1794Z" fill="#6DAAC9"/>
</g>
<defs>
<clipPath id="clip0_2_2994">
<rect width="169" height="62" fill="white" transform="translate(0.949219)"/>
</clipPath>
</defs>
</svg>
