<svg width="436" height="162" viewBox="0 0 436 162" fill="none" xmlns="http://www.w3.org/2000/svg">
<g clip-path="url(#clip0_2_3041)">
<path d="M132.52 8.96H92.01L92.79 10.14C95.56 14.36 98.42 18.52 101.3 22.65H131.12C135.41 22.65 138.91 26.16 138.91 30.44V140.07C138.91 144.36 135.4 147.86 131.12 147.86H21.49C17.2 147.86 13.7 144.35 13.7 140.07V30.45C13.7 26.16 17.21 22.66 21.49 22.66H51.48C54.02 18.94 56.52 15.19 58.99 11.43L60.61 8.97H20.09C9.04 8.96 0 18 0 29.04V141.47C0 152.52 9.04 161.56 20.09 161.56H132.52C143.57 161.56 152.61 152.52 152.61 141.47V29.04C152.61 17.99 143.57 8.95 132.52 8.95V8.96Z" fill="#005886"/>
<path d="M113.23 66.03C113.23 75.69 109.54 85.34 102.14 92.71C95.01 99.82 85.66 103.38 76.3 103.38C66.94 103.38 57.6 99.82 50.46 92.71C36.91 79.21 35.78 58.01 47.07 43.21C52.37 36.28 57.23 29.05 62.01 21.76L69.25 10.74L76.3 0L83.36 10.74L89.9 20.71C95.14 28.7 100.74 36.45 106.29 44.24C110.92 50.75 113.23 58.39 113.23 66.03Z" fill="#BA3E39"/>
<path d="M33.76 112.34H21.33V124.77H33.76V112.34Z" fill="#6DAAC9"/>
<path d="M50.01 112.34H37.58V124.77H50.01V112.34Z" fill="#6DAAC9"/>
<path d="M66.26 112.34H53.83V124.77H66.26V112.34Z" fill="#6DAAC9"/>
<path d="M82.52 112.34H70.09V124.77H82.52V112.34Z" fill="#BA3E39"/>
<path d="M98.77 112.34H86.34V124.77H98.77V112.34Z" fill="#6DAAC9"/>
<path d="M115.02 112.34H102.59V124.77H115.02V112.34Z" fill="#6DAAC9"/>
<path d="M131.28 112.34H118.85V124.77H131.28V112.34Z" fill="#6DAAC9"/>
<path d="M21.33 128.51V135.95C21.33 138.71 23.57 140.94 26.32 140.94H33.76V128.51H21.33Z" fill="#6DAAC9"/>
<path d="M50.01 128.51H37.58V140.94H50.01V128.51Z" fill="#BA3E39"/>
<path d="M66.26 128.51H53.83V140.94H66.26V128.51Z" fill="#6DAAC9"/>
<path d="M82.52 128.51H70.09V140.94H82.52V128.51Z" fill="#6DAAC9"/>
<path d="M98.77 128.51H86.34V140.94H98.77V128.51Z" fill="#6DAAC9"/>
<path d="M115.02 128.51H102.59V140.94H115.02V128.51Z" fill="#BA3E39"/>
<path d="M118.85 128.51V140.94H126.29C129.05 140.94 131.28 138.71 131.28 135.95V128.51H118.85Z" fill="#6DAAC9"/>
<path d="M199.57 64.05V66.37L196.55 67.03L198.07 59.97H201.5L201.32 66.9C198.9 68.24 195.73 69.19 191.85 69.19C183.16 69.19 176.19 64.07 176.19 53.54C176.19 43.01 183.7 37.89 192.17 37.89C195.58 37.89 198.33 38.65 201 40.12L201.18 47.11H197.75L196.2 39.98L199.22 40.68V43.17C197.07 41.24 195.26 40.44 193.23 40.44C188.41 40.44 184.18 44.36 184.18 53.58C184.18 62.8 188.24 66.62 193.01 66.62C195.26 66.62 197.46 65.69 199.57 64.06V64.05Z" fill="#005886"/>
<path d="M212.84 55.79C214.7 55.24 217.9 54.4 220.02 53.9V55.78C217.89 56.32 215.46 56.98 214.14 57.58C212.1 58.44 210.77 59.96 210.77 62.08C210.77 64.34 211.96 65.38 213.48 65.38C214.34 65.38 215.05 65.02 216.49 63.97L218.3 62.61L218.77 63.26L216.88 65.32C214.69 67.64 213.29 69.03 210.02 69.03C206.53 69.03 204.11 66.97 204.11 63.26C204.11 60.05 205.89 57.79 212.84 55.78V55.79ZM216.27 64.66V53.37C216.27 49.37 215.5 48.19 212.62 48.19C211.52 48.19 210.36 48.33 208.4 48.84L211.51 47.08L211.18 50.21C211.07 53.21 209.61 54.42 207.87 54.42C206.26 54.42 205.18 53.65 204.83 52.16C205.07 48.41 208.7 45.87 215.19 45.87C220.97 45.87 223.26 48.32 223.26 54.35V64.46C223.26 65.35 223.63 65.78 224.28 65.78C224.75 65.78 225.12 65.54 225.65 64.79L226.84 65.59C225.76 68.05 224.15 69 221.41 69C218.34 69 216.66 67.39 216.27 64.66Z" fill="#005886"/>
<path d="M237.07 35.6L237.8 36.06L237.62 42.37V58.89C237.62 62.05 237.67 65.2 237.76 68.36H230.3C230.39 65.2 230.44 62.05 230.44 58.89V39.99L227.64 39.54V37.64L237.08 35.61L237.07 35.6ZM240.19 66.25V68.35H227.86V66.25L232.17 65.35H235.58L240.19 66.25Z" fill="#005886"/>
<path d="M263.46 55.4C263.46 56.37 263.39 57.08 263.21 57.83H245.56V55.45H254.01C256.17 55.45 256.74 54.64 256.74 52.63C256.74 49.67 255.32 48.2 253.69 48.2C251.81 48.2 250.1 50.24 250.1 56.76C250.1 62.26 252.82 64.74 256.19 64.74C258.62 64.74 260.29 63.73 261.66 62.32L263.22 63.78C261.37 67.31 258.13 69.04 253.76 69.04C247.2 69.04 242.53 64.75 242.53 57.47C242.53 50.19 248.33 45.87 254.15 45.87C259.97 45.87 263.47 49.94 263.47 55.39L263.46 55.4Z" fill="#005886"/>
<path d="M268.35 68.35C268.44 66.32 268.48 61.68 268.48 58.88V56.27C268.48 53.79 268.43 52.85 268.35 51.04L265.59 50.63V48.86L274.49 45.86L275.26 46.34L275.67 51.34V58.86C275.67 61.66 275.72 66.3 275.81 68.33H268.35V68.35ZM277.86 66.25V68.35H265.99V66.25L270.17 65.35H273.61L277.86 66.25ZM289.25 53.62V58.87C289.25 61.76 289.3 66.31 289.39 68.34H281.93C282.02 66.31 282.07 61.76 282.07 58.87V54.14C282.07 51.25 281.35 50.22 279.55 50.22C277.95 50.22 275.77 51.41 273.98 53.53H272.45V50.62H275.5L273.79 51.89C276.95 47.32 279.52 45.86 282.75 45.86C286.66 45.86 289.26 48.41 289.26 53.62H289.25ZM287.15 65.34L291.56 66.24V68.34H279.66V66.24L283.74 65.34H287.15Z" fill="#005886"/>
<path d="M306.13 65.13C308.3 65.13 309.81 63.52 311.24 61.31L311.78 62.04C309.55 66.86 306.81 69.04 302.8 69.04C297.69 69.04 293.8 65.01 293.8 57.65C293.8 50.29 298.64 45.87 303.73 45.87C307.63 45.87 309.52 48.01 311.6 52.02L311.15 52.9C309.38 50.76 308.1 49.69 306.25 49.69C303.52 49.69 301.43 52.23 301.43 57.57C301.43 62.53 303.35 65.13 306.13 65.13ZM318.31 66.26V68.36L309.49 68.88L308.91 64.87V49.9L309.18 49.41V40L306.02 39.55V37.65L315.55 35.62L316.28 36.08L316.1 42.39V68.38L313.04 65.1L318.32 66.28L318.31 66.26Z" fill="#005886"/>
<path d="M328.96 55.79C330.82 55.24 334.02 54.4 336.15 53.9V55.78C334.02 56.32 331.59 56.98 330.27 57.58C328.23 58.44 326.9 59.96 326.9 62.08C326.9 64.34 328.09 65.38 329.61 65.38C330.47 65.38 331.18 65.02 332.62 63.97L334.43 62.61L334.9 63.26L333.01 65.32C330.82 67.64 329.42 69.03 326.15 69.03C322.66 69.03 320.24 66.97 320.24 63.26C320.24 60.05 322.02 57.79 328.97 55.78L328.96 55.79ZM332.39 64.66V53.37C332.39 49.37 331.61 48.19 328.74 48.19C327.64 48.19 326.48 48.33 324.52 48.84L327.63 47.08L327.3 50.21C327.19 53.21 325.73 54.42 323.99 54.42C322.38 54.42 321.3 53.65 320.95 52.16C321.19 48.41 324.82 45.87 331.31 45.87C337.09 45.87 339.38 48.32 339.38 54.35V64.46C339.38 65.35 339.75 65.78 340.4 65.78C340.87 65.78 341.24 65.54 341.77 64.79L342.97 65.59C341.89 68.05 340.28 69 337.54 69C334.47 69 332.79 67.39 332.4 64.66H332.39ZM331.67 36.18C332.89 34.18 333.75 33.33 335.23 33.33C336.44 33.33 337.68 34.26 337.68 35.84C337.68 37.17 336.61 38.31 334.84 39.63C332.19 41.59 331.04 42.5 329.86 43.39L328.15 42.01C328.94 40.64 329.76 39.3 331.68 36.17L331.67 36.18Z" fill="#005886"/>
<path d="M346.49 58.88V56.24C346.49 53.76 346.44 52.85 346.35 51.05L343.59 50.64V48.87L352.49 45.87L353.26 46.35L353.67 51.89V58.88C353.67 61.68 353.72 66.32 353.81 68.35H346.35C346.44 66.32 346.49 61.68 346.49 58.88ZM343.95 66.25L348.26 65.35H353L357.31 66.25V68.35H343.95V66.25ZM350.34 52.92H353.72L353.11 54.15C353.9 48.62 357.04 45.87 359.74 45.87C361.7 45.87 363.28 46.96 363.66 49.19C363.56 51.54 362.26 52.87 360.46 52.87C359.1 52.87 358.05 52.2 356.97 50.78L355.65 49.06L357.47 49.72C355.85 50.9 354.22 53.29 353.64 55.98L350.33 55.65V52.92H350.34Z" fill="#005886"/>
<path d="M367.41 68.35C367.5 66.32 367.55 61.68 367.55 58.88V56.73C367.55 54.25 367.5 52.85 367.41 51.05L364.62 50.64V48.87L374.06 45.87L374.84 46.35L374.7 52.89V58.87C374.7 61.67 374.75 66.31 374.84 68.34H367.41V68.35ZM377.02 66.25V68.35H365.05V66.25L369.23 65.35H372.64L377.02 66.25ZM367.22 38.94C367.22 36.84 368.92 35.35 371.04 35.35C373.16 35.35 374.86 36.84 374.86 38.94C374.86 41.04 373.16 42.53 371.04 42.53C368.92 42.53 367.22 41.03 367.22 38.94Z" fill="#005886"/>
<path d="M379.25 57.37C379.25 50.44 384.25 45.88 390.7 45.88C397.15 45.88 402.15 50.34 402.15 57.37C402.15 64.4 397.68 69.04 390.7 69.04C383.72 69.04 379.25 64.3 379.25 57.37ZM394.52 57.47C394.52 51.07 393.23 48.23 390.7 48.23C388.17 48.23 386.89 51.07 386.89 57.47C386.89 63.87 388.16 66.69 390.7 66.69C393.24 66.69 394.52 63.9 394.52 57.47Z" fill="#005886"/>
<path d="M188.31 110.22C190.48 110.22 191.99 108.61 193.42 106.4L193.96 107.13C191.73 111.95 188.99 114.13 184.98 114.13C179.87 114.13 175.98 110.1 175.98 102.74C175.98 95.38 180.82 90.96 185.91 90.96C189.81 90.96 191.7 93.1 193.78 97.11L193.33 97.99C191.56 95.85 190.28 94.78 188.43 94.78C185.7 94.78 183.61 97.32 183.61 102.66C183.61 107.62 185.53 110.22 188.31 110.22ZM200.49 111.35V113.45L191.67 113.97L191.09 109.96V94.99L191.36 94.5V85.09L188.2 84.64V82.74L197.73 80.71L198.46 81.17L198.28 87.48V113.47L195.22 110.19L200.5 111.37L200.49 111.35Z" fill="#005886"/>
<path d="M202.75 102.46C202.75 95.53 207.75 90.97 214.2 90.97C220.65 90.97 225.65 95.43 225.65 102.46C225.65 109.49 221.18 114.13 214.2 114.13C207.22 114.13 202.75 109.39 202.75 102.46ZM218.02 102.56C218.02 96.16 216.73 93.32 214.2 93.32C211.67 93.32 210.38 96.16 210.38 102.56C210.38 108.96 211.65 111.78 214.2 111.78C216.75 111.78 218.02 108.99 218.02 102.56Z" fill="#005886"/>
<path d="M238.06 86.24V83.82H245.32V86.92H244.61L238.06 86.24ZM245.32 110.35V113.45H238.06V111.03L244.61 110.35H245.32ZM241.53 97.8C241.53 93.16 241.53 88.47 241.4 83.82H249.24C249.1 88.37 249.1 93.06 249.1 97.8V99.29C249.1 104.12 249.1 108.81 249.24 113.45H241.4C241.53 108.9 241.53 104.21 241.53 99.32V97.8ZM245.32 110.85H250.68C255.84 110.85 259.03 106.43 259.03 98.61C259.03 90.79 255.84 86.41 250.76 86.41H245.32V83.82H251.46C261.07 83.82 266.86 89.43 266.86 98.55C266.86 107.67 260.51 113.45 250.66 113.45H245.32V110.86V110.85Z" fill="#005886"/>
<path d="M272.08 113.45C272.17 111.42 272.22 106.78 272.22 103.98V101.83C272.22 99.35 272.17 97.95 272.08 96.15L269.29 95.74V93.97L278.73 90.97L279.5 91.45L279.37 97.99V103.97C279.37 106.77 279.41 111.41 279.5 113.44H272.07L272.08 113.45ZM281.69 111.35V113.45H269.72V111.35L273.9 110.45H277.31L281.69 111.35ZM271.89 84.04C271.89 81.94 273.59 80.45 275.71 80.45C277.83 80.45 279.53 81.94 279.53 84.04C279.53 86.14 277.83 87.63 275.71 87.63C273.59 87.63 271.89 86.13 271.89 84.04Z" fill="#005886"/>
<path d="M292.75 100.88C294.61 100.33 297.81 99.49 299.94 98.99V100.87C297.81 101.41 295.38 102.07 294.06 102.67C292.02 103.53 290.69 105.05 290.69 107.17C290.69 109.43 291.88 110.47 293.4 110.47C294.26 110.47 294.97 110.11 296.41 109.06L298.22 107.7L298.69 108.35L296.8 110.41C294.62 112.73 293.21 114.12 289.94 114.12C286.45 114.12 284.03 112.06 284.03 108.35C284.03 105.14 285.81 102.88 292.76 100.87L292.75 100.88ZM296.18 109.75V98.46C296.18 94.46 295.4 93.28 292.53 93.28C291.43 93.28 290.27 93.42 288.31 93.93L291.42 92.17L291.09 95.3C290.98 98.3 289.52 99.51 287.78 99.51C286.17 99.51 285.09 98.74 284.74 97.25C284.98 93.5 288.61 90.96 295.1 90.96C300.88 90.96 303.17 93.41 303.17 99.44V109.55C303.17 110.44 303.54 110.87 304.19 110.87C304.66 110.87 305.03 110.63 305.56 109.88L306.75 110.68C305.67 113.14 304.06 114.09 301.32 114.09C298.25 114.09 296.57 112.48 296.18 109.75Z" fill="#005886"/>
<path d="M307.86 111.38L312.08 110.48L310.2 113.48C310.29 111.45 310.34 106.81 310.34 104.01V84.98L307.54 84.63V82.73L316.84 80.7L317.57 81.16L317.39 87.47V94.34L317.53 94.93V110.19L316.4 114.11L307.87 113.5V111.4L307.86 111.38ZM325.13 102.48C325.13 97.15 323.33 94.87 320.65 94.87C318.28 94.87 316.26 97.35 314.79 98.88L314.38 98.13C316.96 93.28 319.96 90.95 323.94 90.95C328.85 90.95 332.77 94.86 332.77 102.36C332.77 109.86 328.22 114.12 323.13 114.12C319.08 114.12 316.71 111.83 314.71 107.17L315.12 106.32C316.98 108.81 318.37 110.31 320.59 110.31C323.22 110.31 325.14 107.81 325.14 102.48H325.13Z" fill="#005886"/>
<path d="M356.62 100.49C356.62 101.46 356.55 102.17 356.37 102.92H338.72V100.54H347.17C349.33 100.54 349.9 99.73 349.9 97.72C349.9 94.76 348.48 93.29 346.85 93.29C344.97 93.29 343.26 95.33 343.26 101.85C343.26 107.35 345.98 109.83 349.35 109.83C351.78 109.83 353.45 108.82 354.82 107.41L356.38 108.87C354.53 112.4 351.29 114.13 346.92 114.13C340.36 114.13 335.69 109.84 335.69 102.56C335.69 95.28 341.49 90.96 347.31 90.96C353.13 90.96 356.63 95.03 356.63 100.48L356.62 100.49ZM347.72 81.28C348.93 79.28 349.8 78.43 351.28 78.43C352.49 78.43 353.73 79.36 353.73 80.94C353.73 82.27 352.66 83.41 350.89 84.73C348.24 86.69 347.09 87.6 345.91 88.49L344.2 87.11C344.99 85.74 345.81 84.4 347.73 81.27L347.72 81.28Z" fill="#005886"/>
<path d="M370.78 110.44C371.61 110.44 372.35 110.1 373.23 109.44L374.33 110.53C373.14 112.82 371.03 114.13 367.73 114.13C363.64 114.13 361.25 112.31 361.25 107.86C361.25 106.29 361.3 105.08 361.3 103.32V94.74H358.39V92.05L363.72 91.36L361.14 93.17L363.99 85.31H368.59L368.49 93.43V107.36C368.49 109.48 369.45 110.44 370.79 110.44H370.78ZM373.21 91.65V94.74H364.92V91.65H373.21Z" fill="#005886"/>
<path d="M377.73 113.45C377.82 111.42 377.87 106.78 377.87 103.98V101.83C377.87 99.35 377.82 97.95 377.73 96.15L374.94 95.74V93.97L384.38 90.97L385.16 91.45L385.02 97.99V103.97C385.02 106.77 385.07 111.41 385.16 113.44H377.73V113.45ZM387.34 111.35V113.45H375.37V111.35L379.55 110.45H382.96L387.34 111.35ZM377.54 84.04C377.54 81.94 379.24 80.45 381.36 80.45C383.48 80.45 385.18 81.94 385.18 84.04C385.18 86.14 383.48 87.63 381.36 87.63C379.24 87.63 377.54 86.13 377.54 84.04Z" fill="#005886"/>
<path d="M397.08 101.78C397.08 106.97 399.58 109.82 403.37 109.82C405.53 109.82 407.15 108.82 408.45 107.31L410.02 108.7C408.28 112.38 405.04 114.13 400.77 114.13C394.62 114.13 389.54 110.19 389.54 102.61C389.54 95.03 394.99 90.97 401.72 90.97C406.48 90.97 409.82 93.94 410.14 97.54C409.65 99.16 408.72 99.89 407.1 99.89C405.32 99.89 403.85 98.79 403.64 95.62L403.23 92.4L406.51 94.26C405.11 93.61 403.93 93.3 402.51 93.3C399.92 93.3 397.09 95.7 397.09 101.79L397.08 101.78Z" fill="#005886"/>
<path d="M412.39 102.46C412.39 95.53 417.39 90.97 423.84 90.97C430.29 90.97 435.29 95.43 435.29 102.46C435.29 109.49 430.82 114.13 423.84 114.13C416.86 114.13 412.39 109.39 412.39 102.46ZM427.66 102.56C427.66 96.16 426.37 93.32 423.84 93.32C421.31 93.32 420.03 96.16 420.03 102.56C420.03 108.96 421.3 111.78 423.84 111.78C426.38 111.78 427.66 108.99 427.66 102.56Z" fill="#005886"/>
<path d="M430.78 128.16H180.52C178.029 128.16 176.01 130.179 176.01 132.67C176.01 135.161 178.029 137.18 180.52 137.18H430.78C433.271 137.18 435.29 135.161 435.29 132.67C435.29 130.179 433.271 128.16 430.78 128.16Z" fill="#BA3E39"/>
</g>
<defs>
<clipPath id="clip0_2_3041">
<rect width="435.3" height="161.57" fill="white"/>
</clipPath>
</defs>
</svg>
